<?xml version="1.0" encoding="utf-8"?>
<!-- Generator: Adobe Illustrator 16.0.0, SVG Export Plug-In . SVG Version: 6.00 Build 0)  -->
<!DOCTYPE svg PUBLIC "-//W3C//DTD SVG 1.1//EN" "http://www.w3.org/Graphics/SVG/1.1/DTD/svg11.dtd">
<svg version="1.1" class="svg-inline--fa icon" role="presentation" aria-hidden="true" focusable="false" xmlns="http://www.w3.org/2000/svg" xmlns:xlink="http://www.w3.org/1999/xlink"
	 x="0px" y="0px" width="512px" height="479px" viewBox="0 0 512 479" enable-background="new 0 0 512 479" xml:space="preserve">
<g>
	<path d="M151.609,338.344h34.347c2.311,0,2.972-1,2.972-2.977V125.319c0-1.984-0.662-2.314-2.642-2.314h-34.677
		c-1.649,0-2.641,0.331-2.641,2.314v210.048C148.976,337.344,149.637,338.344,151.609,338.344z"/>
	<path d="M295.951,341.635c21.791,0,45.242-5.945,66.049-16.178c1.652-0.984,1.984-1.646,1.652-3.299
		c-0.33-5.283-0.991-14.201-0.991-21.137V106.157c0-1.319-0.322-1.98-1.646-1.98h-36c-1.314,0-1.977,0.661-1.977,2.311v70.351
		c-5.62-1.649-11.227-2.311-18.822-2.311c-56.146,0-91.492,37.319-91.492,85.203C212.718,314.893,247.396,341.635,295.951,341.635z
		 M303.549,205.238c7.598,0,14.531,0.992,19.482,2.976v98.421c-5.951,1.982-14.209,3.305-22.467,3.305
		c-25.098,0-46.896-14.879-46.896-52.192C253.669,224.069,273.822,205.238,303.549,205.238z"/>
	<path d="M0,0v479h512V0H0z M479,446H33V33h446V446z"/>
</g>
</svg>
