<?xml version="1.0" encoding="utf-8"?>
<!-- Generator: Adobe Illustrator 16.0.0, SVG Export Plug-In . SVG Version: 6.00 Build 0)  -->
<!DOCTYPE svg PUBLIC "-//W3C//DTD SVG 1.1//EN" "http://www.w3.org/Graphics/SVG/1.1/DTD/svg11.dtd">
<svg version="1.1" class="svg-inline--fa icon" role="presentation" aria-hidden="true" focusable="false" xmlns="http://www.w3.org/2000/svg" xmlns:xlink="http://www.w3.org/1999/xlink"
	 x="0px" y="0px" width="512px" height="479px" viewBox="0 0 512 479" enable-background="new 0 0 512 479" xml:space="preserve">
<g>
	<path d="M115.117,339.258h33.685c1.98,0,2.972-0.66,3.303-2.645l20.141-57.469h75.637l21.133,58.129
		c0.662,1.322,1.323,1.983,2.969,1.983h36.992c1.976,0,2.637-1,1.976-2.968c-25.099-68.37-51.849-143.011-76.291-210.716
		c-0.661-1.323-0.992-1.654-2.64-1.654h-45.577c-0.992,0-1.983,0.661-1.983,1.984c-0.662,11.552-1.649,14.854-2.642,18.157
		c-21.142,57.138-51.194,141.359-69.029,191.891C112.145,338.258,112.807,339.258,115.117,339.258z M209.242,156.943h0.33
		c6.609,23.113,22.787,67.71,29.392,89.831h-58.129C190.746,216.064,204.286,178.746,209.242,156.943z"/>
	<path d="M356.902,156.943c13.211,0,22.13-7.927,22.13-20.472c0-12.222-8.259-20.479-21.808-20.479
		c-12.871,0-22.451,8.258-22.451,20.479C334.773,149.016,343.693,156.943,356.902,156.943z"/>
	<path d="M374.402,178.746h-35c-1.66,0-2.322,0.661-2.322,2.641v154.895c0,2.313,1,2.976,2.984,2.976h34.338
		c1.984,0,2.646-1,2.646-2.645V181.387C377.049,179.077,376.387,178.746,374.402,178.746z"/>
	<path d="M0,0v479h512V0H0z M479,446H33V33h446V446z"/>
</g>
</svg>
