<?xml version="1.0" encoding="utf-8"?>
<!-- Generator: Adobe Illustrator 16.0.0, SVG Export Plug-In . SVG Version: 6.00 Build 0)  -->
<!DOCTYPE svg PUBLIC "-//W3C//DTD SVG 1.1//EN" "http://www.w3.org/Graphics/SVG/1.1/DTD/svg11.dtd">
<svg version="1.1" class="svg-inline--fa icon" role="presentation" aria-hidden="true" focusable="false" xmlns="http://www.w3.org/2000/svg" xmlns:xlink="http://www.w3.org/1999/xlink" x="0px" y="0px"
	 width="62px" height="58px" viewBox="0 0 62 58" enable-background="new 0 0 62 58" xml:space="preserve">
<g>
	<path fill="currentcolor" d="M13.94,41.08h4.079c0.24,0,0.36-0.08,0.4-0.32l2.439-6.959h9.159l2.559,7.039c0.08,0.16,0.16,0.24,0.36,0.24h4.479
		c0.24,0,0.32-0.121,0.24-0.36c-3.04-8.278-6.279-17.317-9.239-25.516c-0.08-0.16-0.12-0.2-0.32-0.2h-5.519
		c-0.12,0-0.24,0.08-0.24,0.24c-0.08,1.399-0.2,1.799-0.32,2.199c-2.56,6.919-6.199,17.117-8.359,23.236
		C13.58,40.959,13.66,41.08,13.94,41.08z M25.338,19.003h0.04c0.8,2.799,2.759,8.199,3.559,10.878h-7.039
		C23.098,26.162,24.738,21.643,25.338,19.003z"/>
	<path fill="currentcolor" d="M43.219,19.003c1.6,0,2.68-0.96,2.68-2.479c0-1.48-1-2.48-2.641-2.48c-1.559,0-2.719,1-2.719,2.48
		C40.539,18.043,41.619,19.003,43.219,19.003z"/>
	<path fill="currentcolor" d="M45.338,21.643h-4.239c-0.2,0-0.28,0.08-0.28,0.32V40.72c0,0.28,0.121,0.36,0.36,0.36h4.159c0.24,0,0.32-0.121,0.32-0.32
		V21.963C45.658,21.683,45.578,21.643,45.338,21.643z"/>
	<path fill="currentcolor" d="M0,0v58h62V0H0z M58,54H4V4h54V54z"/>
</g>
</svg>
