<?xml version="1.0" encoding="utf-8"?>
<!-- Generator: Adobe Illustrator 16.0.0, SVG Export Plug-In . SVG Version: 6.00 Build 0)  -->
<!DOCTYPE svg PUBLIC "-//W3C//DTD SVG 1.1//EN" "http://www.w3.org/Graphics/SVG/1.1/DTD/svg11.dtd">
<svg version="1.1" class="svg-inline--fa icon" role="presentation" aria-hidden="true" focusable="false" xmlns="http://www.w3.org/2000/svg" xmlns:xlink="http://www.w3.org/1999/xlink" x="0px" y="0px"
	 width="62px" height="58px" viewBox="0 0 62 58" enable-background="new 0 0 62 58" xml:space="preserve">
<g>
	<path fill="currentcolor" d="M18.359,41.08h4.159c0.28,0,0.36-0.121,0.36-0.36V15.284c0-0.24-0.08-0.28-0.32-0.28h-4.199c-0.2,0-0.32,0.04-0.32,0.28
		V40.72C18.04,40.959,18.12,41.08,18.359,41.08z"/>
	<path fill="currentcolor" d="M35.838,41.479c2.639,0,5.479-0.72,7.998-1.96c0.2-0.119,0.24-0.199,0.2-0.399c-0.04-0.64-0.12-1.72-0.12-2.56V12.964
		c0-0.16-0.039-0.24-0.199-0.24h-4.359c-0.16,0-0.24,0.08-0.24,0.28v8.519c-0.68-0.2-1.359-0.28-2.279-0.28
		c-6.799,0-11.079,4.519-11.079,10.317C25.759,38.24,29.958,41.479,35.838,41.479z M36.758,24.962c0.92,0,1.76,0.12,2.359,0.36
		V37.24c-0.721,0.24-1.72,0.4-2.72,0.4c-3.04,0-5.679-1.801-5.679-6.319C30.718,27.242,33.158,24.962,36.758,24.962z"/>
	<path fill="currentcolor" d="M0,0v58h62V0H0z M58,54H4V4h54V54z"/>
</g>
</svg>
