<?xml version="1.0" encoding="utf-8"?>
<!-- Generator: Adobe Illustrator 16.0.0, SVG Export Plug-In . SVG Version: 6.00 Build 0)  -->
<!DOCTYPE svg PUBLIC "-//W3C//DTD SVG 1.1//EN" "http://www.w3.org/Graphics/SVG/1.1/DTD/svg11.dtd">
<svg version="1.1" class="svg-inline--fa icon" role="presentation" aria-hidden="true" focusable="false" xmlns="http://www.w3.org/2000/svg" xmlns:xlink="http://www.w3.org/1999/xlink" x="0px" y="0px"
	 width="512px" height="116px" viewBox="0 0 512 116" enable-background="new 0 0 512 116" xml:space="preserve">
<g>
	<g>
		<path d="M218.936,45.153l-3.279,11.607l3.279-11.612V45.153z M235.794,70.366l-3.611-0.017L235.794,70.366z M234.904,87.715
			l-21.635,0.082L234.904,87.715z M239.435,70.397l-3.615-0.022L239.435,70.397z M236.807,86.249l3.775-14.373L236.807,86.249z
			 M316.479,20.078l-7.018,33.01L316.479,20.078z M298.429,20.033l-5.325,24.662L298.429,20.033z"/>
		<path d="M315.231,18.554h-15.015c-0.834,0-1.661,0.666-1.84,1.483l-10.66,49.327c-0.174,0.812-1.001,1.479-1.831,1.479h-10.625
			c-10.521,0-9.304-7.269-7.107-17.231l0.064-0.301l1.274-6.795l0.551-2.799l4.853-23.681c0.165-0.817-0.381-1.487-1.213-1.487
			h-15.415c-0.871,0.03-1.617,0.635-1.83,1.483l-7.028,32.927c-3.818,17.429-2.805,34.044,17.94,34.564h33.165
			c0.837,0,1.653-0.664,1.835-1.482l14.043-66.022c0.175-0.817-0.373-1.482-1.2-1.482L315.231,18.554z M375.096,71.018
			c0.836,0,1.33,0.667,1.209,1.483l-1.457,7.13 M373.429,86.756l1.453-7.134L373.429,86.756z M371.652,88.261l-27.667,0.131
			L371.652,88.261z"/>
		<path d="M334.977,61.838c-0.013-0.78,0.872-2.123,1.71-2.123l-1.874-0.03C333.923,68.185,334.977,61.838,334.977,61.838z
			 M345.304,88.383h-0.29H345.304z M375.096,71.061c0.836,0,1.33,0.668,1.209,1.483l-1.656,8.244 M352.407,88.37h-0.061H352.407z
			 M348.722,88.383h-0.213H348.722z M347.604,88.383h-0.357H347.604z M346.457,88.383h-0.312H346.457z M348.509,88.383h-0.91
			H348.509z"/>
		<path d="M352.355,88.37l-3.625,0.013L352.355,88.37z M371.617,88.248l-19.21,0.117L371.617,88.248z M373.39,86.761l1.225-5.968
			l-1.225,5.972V86.761z M347.208,88.383h-0.79H347.208z M344.965,88.392h-1.066H344.965z M346.094,88.383h-0.885H346.094z
			 M126.444,62.016l2.331-10.34l-2.663,11.812l-0.312,1.483l0.648-2.965L126.444,62.016z M154.371,18.381h-16.49
			c-0.876,0.034-1.626,0.635-1.852,1.479l-3.127,13.768c-0.18,0.612,0.17,1.254,0.781,1.436c0.131,0.037,0.265,0.053,0.402,0.044
			h16.617c0.835,0,1.662-0.666,1.839-1.479l3.021-13.798c0.177-0.813-0.356-1.479-1.199-1.479L154.371,18.381z M150.818,41.343
			l-4.886,22.371L150.818,41.343z M102.916,115.472l13.599,0.108c-4.016,0-10.645-0.072-13.603-0.108H102.916z"/>
		<path d="M131.156,41.339l-2.335,10.337L131.156,41.339z M149.632,39.855h-16.578c-0.876,0.032-1.627,0.633-1.852,1.479
			l-4.665,20.677l-0.648,2.969l-4.441,21.104c-0.219,0.989-0.485,1.96-0.798,2.923c0,0-3.109,9.234-8.322,9.134l-5.175-0.099
			c-0.872,0.025-1.626,0.61-1.867,1.447l-3.445,14.49c-0.187,0.607,0.156,1.254,0.766,1.44c0.127,0.039,0.26,0.056,0.394,0.052
			l13.604,0.108c13.039,0,19.909-7.226,24.319-28.013l9.993-46.186c0.178-0.812-0.364-1.479-1.199-1.479L149.632,39.855z
			 M385.722,87.542c-0.839,0-1.333-0.669-1.197-1.484l12.513-58.562 M403.1,86.058l5.065-24.996L403.1,86.058z"/>
		<path d="M384.711,86.804c-0.104-0.412-0.044-1.409,0.129-2.221l5.933-27.805l-6.248,29.279c-0.179,0.82,0.358,1.484,1.197,1.484
			h1.521C386.405,87.542,384.806,87.212,384.711,86.804z M402.119,87.212c-0.45,0.173-1.509,0.33-2.347,0.33h1.522
			c0.868-0.035,1.613-0.643,1.818-1.484l0.302-1.482c-0.163,0.814-0.888,2.455-1.33,2.637H402.119z M405.637,73.559l2.232-11.034
			L405.637,73.559z M454.971,31.419l0.686,2.843c0.189,0.813-0.34,1.475-1.167,1.479"/>
		<path d="M403.407,84.575l2.221-11.017L403.407,84.575z M454.275,28.503l0.687,2.913L454.275,28.503z M407.869,62.536l0.612-2.949
			l2.385-11.17l-2.701,12.648l-0.296,1.467V62.536z M397.236,26.536l-0.521,2.442l-5.935,27.8l6.256-29.279l0.199-0.958V26.536z"/>
		<path d="M455.656,34.263l-0.686-2.843l-1.023-4.441c-1.354-5.239-5.312-8.272-13.922-8.272l-39.615-0.027
			c-0.867,0.029-1.618,0.636-1.83,1.484l-0.607,2.899l-0.893,4.383l-12.184,57.081c-0.177,0.82-0.238,1.779-0.135,2.221
			c0.104,0.447,1.7,0.742,2.533,0.742h12.525c0.833,0,1.883-0.147,2.343-0.33c0.46-0.182,1.127-1.777,1.336-2.64l4.749-23.513
			l5.086-23.821c0.175-0.812,0.998-1.475,1.831-1.479l39.406-0.02c0.828,0,1.353-0.666,1.163-1.479L455.656,34.263z M506.381,8.531
			l-3.031,0.013h-12.615c-0.93,0.057-1.796,0.512-2.369,1.254l-27.891,40.856c-0.473,0.689-1.007,0.588-1.202-0.221l-2.047-9.004
			c-0.226-0.843-0.979-1.444-1.857-1.478h-17.929c-0.832,0-1.326,0.654-1.098,1.457l7.993,28.147
			c0.231,0.803,0.244,2.121,0.044,2.932l-3.552,13.623c-0.203,0.581,0.107,1.21,0.686,1.414c0.147,0.047,0.299,0.068,0.456,0.052
			h17.764c0.833,0,1.69-0.664,1.892-1.462l3.556-13.622c0.278-0.96,0.711-1.865,1.284-2.681L511.75,9.713
			c0.5-0.668,0.227-1.208-0.606-1.199l-4.754,0.03L506.381,8.531z M363.927,43.785c-0.104,0.889-0.937,1.555-1.772,1.555h-22.74
			c-0.789,0-1.188-0.534-1.067-1.199l0.018-0.122l0.104-0.386c2.222-5.772,6.594-9.561,14.902-9.561
			c9.36,0,11.187,4.573,10.548,9.713H363.927z M357.265,17.546c-29.174,0-36.092,17.712-39.97,35.587
			c-3.877,18.223-3.539,35.263,26.646,35.263h4.789l3.686-0.013l19.214-0.113c0.867-0.043,1.605-0.65,1.808-1.491l2.919-14.265
			c0.166-0.815-0.382-1.483-1.213-1.483h-27.143c-10.789,0-14-2.867-12.819-11.303h43.388c0.711-0.013,1.356-0.442,1.613-1.119
			c0.044-0.119,0.086-0.247,0.104-0.377c6.437-24.292,4.588-40.666-23.004-40.666L357.265,17.546z M219.343,43.691l-0.408,1.453
			c0,0.004-3.279,11.616-3.279,11.616l-3.276,11.611c-0.279,0.837-1.044,1.413-1.928,1.457h-17.341
			c-13.155,0-16.357-10.293-13.155-25.468c3.196-15.522,9.481-25.172,22.427-26.147c17.694-1.334,21.228,11.111,16.965,25.474
			L219.343,43.691z M231.238,68.939c0,0,8.17-19.853,10.036-31.324C243.807,22.263,236.123,0,206.434,0
			c-29.52,0-42.337,21.254-47.228,44.411c-4.885,23.271,1.52,43.686,30.867,43.521l44.793-0.165c0.88-0.039,1.64-0.629,1.896-1.47
			l3.775-14.382c0.204-0.577-0.103-1.21-0.679-1.418c-0.146-0.048-0.3-0.069-0.454-0.057h-7.225c-0.711-0.004-1.11-0.464-1.03-1.067
			c0.013-0.108,0.043-0.221,0.089-0.333V68.939z"/>
		<path d="M377.358,55.651c0,0.551-0.446,0.995-0.993,0.995c-0.555,0-0.997-0.444-0.997-0.995c0-0.552,0.442-0.994,0.997-0.994
			C376.912,54.657,377.358,55.1,377.358,55.651z"/>
	</g>
	<path d="M5.846,29.835c-8.149,11.716-7.137,26.959-0.911,39.404l0.458,0.885l0.293,0.563l0.178,0.321l0.323,0.576l0.596,1.023
		l0.339,0.56l0.687,1.076l0.292,0.455l1,1.444l0.195,0.269l0.911,1.21l0.342,0.434l0.887,1.037l0.321,0.386l1.171,1.341L13,80.897
		l1.19,1.257l0.382,0.382l0.95,0.89l0.393,0.368l1.301,1.188l0.248,0.208l1.186,0.998l0.444,0.39l0.987,0.772l0.531,0.446
		l1.11,0.798l0.516,0.365l1.076,0.711l0.466,0.308l1.687,1.032l0.466,0.27l1.266,0.711l0.701,0.355l0.906,0.469l0.208,0.104
		l0.368,0.174l1.436,0.668l0.302,0.135l1.673,0.689l0.408,0.164l1.577,0.582l0.202,0.073l1.759,0.577l0.425,0.125l1.776,0.517
		c39.415,7.19,50.865-23.688,50.865-23.688c-9.615,12.521-26.647,15.83-42.856,12.152c-0.614-0.131-1.208-0.33-1.804-0.504
		l-0.442-0.134c-0.581-0.178-1.158-0.369-1.733-0.568l-0.241-0.087c-0.514-0.178-1.021-0.373-1.531-0.568l-0.432-0.169
		c-0.555-0.217-1.108-0.446-1.656-0.685l-0.328-0.148l-1.394-0.65l-0.445-0.195c-0.364-0.178-0.72-0.364-1.079-0.551l-0.721-0.377
		c-0.434-0.234-0.865-0.473-1.292-0.725l-0.434-0.242c-0.568-0.339-1.132-0.677-1.689-1.032c-0.154-0.096-0.301-0.204-0.451-0.3
		l-1.199-0.802c-0.135-0.087-0.258-0.174-0.388-0.265l-1.132-0.82l-0.5-0.381l-1.021-0.799l-0.458-0.364l-1.275-1.075
		c-0.043-0.043-0.089-0.074-0.132-0.113c-0.454-0.441-0.898-0.807-1.343-1.219l-0.377-0.364l-0.963-0.94l-0.377-0.378
		c-0.402-0.412-0.796-0.823-1.182-1.244c-0.427-0.469-0.846-0.946-1.258-1.423l-0.31-0.373l-0.863-1.066l-0.31-0.443l-0.995-1.326
		C8.257,52.532,5.028,35.64,12.254,21.766 M31.188,19.968c-5.894,8.438-5.575,19.838-0.978,28.805
		c0.77,1.507,1.641,2.962,2.606,4.353c0.889,1.266,1.865,2.771,3.034,3.788l1.323,1.331l0.347,0.343l1.351,1.258l0.065,0.057
		l1.576,1.306l0.356,0.279l1.652,1.199l1.156,0.768l1.221,0.755l0.178,0.104l1.083,0.604l0.388,0.199l0.754,0.395l0.115,0.053
		l1.577,0.736l0.347,0.14l1.332,0.524l0.555,0.204l1.186,0.416l0.533,0.174c0.568,0.182,1.128,0.446,1.718,0.499
		c30.436,5.044,37.461-18.386,37.461-18.386c-6.333,9.121-18.6,13.472-31.687,10.082l-1.724-0.499l-0.521-0.167l-1.197-0.418
		l-0.546-0.204l-1.297-0.525l-0.355-0.145l-1.585-0.737l-0.8-0.444l-0.458-0.237l-1.243-0.709l-1.223-0.748l-1.153-0.768
		L46.69,53.15l-0.369-0.293c-5.772-4.521-10.272-10.658-12.434-17.71c-2.221-7.271-1.775-15.429,2.145-22.052 M52.419,12.595
		c-3.472,5.107-3.818,11.459-1.403,17.112c2.54,5.996,7.755,10.658,13.833,12.879l0.757,0.267l0.331,0.106l1.084,0.31
		c16.807,3.244,21.317-8.624,22.575-10.37c-3.997,5.747-10.659,7.128-18.938,5.131c-0.674-0.178-1.34-0.382-1.997-0.613
		c-0.807-0.284-1.596-0.614-2.368-0.98c-1.464-0.705-2.852-1.553-4.148-2.533c-7.371-5.595-11.99-16.253-7.137-24.936"/>
</g>
</svg>
